name E:\Dropbox\SEL\BOX\Experiment\240124_SUB1_PJH\c3d\XYZ\UpDown_TrcMot\15_10_trial2_D1_ExtLoadAPP3.mot
datacolumns 37
datarows 10
range 7.39 7.399
endheader

time	    ground_force1_vx	    ground_force1_vy	    ground_force1_vz	    ground_force1_px	    ground_force1_py	    ground_force1_pz	    ground_torque1_x	    ground_torque1_y	    ground_torque1_z	    ground_force2_vx	    ground_force2_vy	    ground_force2_vz	    ground_force2_px	    ground_force2_py	    ground_force2_pz	    ground_torque2_x	    ground_torque2_y	    ground_torque2_z	      hand_force3_vx	      hand_force3_vy	      hand_force3_vz	      hand_force3_px	      hand_force3_py	      hand_force3_pz	      hand_torque3_x	      hand_torque3_y	      hand_torque3_z	      hand_force4_vx	      hand_force4_vy	      hand_force4_vz	      hand_force4_px	      hand_force4_py	      hand_force4_pz	      hand_torque4_x	      hand_torque4_y	      hand_torque4_z	
7.39	         31.50527724	        392.69311678	          2.60318090	          0.22001870	          0.00000000	          0.19849021	          0.00000000	         -1.97940858	          0.00000000	        -38.91774478	        455.42391458	          3.88435978	          0.57559376	          0.00000000	          0.19371072	          0.00000000	          1.78356730	          0.00000000	          0.00000000	          0.00000000	          0.00000000	          0.13960694	          1.01627394	         -0.19435456	          0.00000000	          0.00000000	          0.00000000	          0.00000000	          0.00000000	          0.00000000	          0.65512816	          1.04970591	         -0.19304463	          0.00000000	          0.00000000	          0.00000000	
7.391	         31.55104921	        392.55826258	          2.68274509	          0.22000835	          0.00000000	          0.19865725	          0.00000000	         -1.98854072	          0.00000000	        -38.94126662	        455.36922485	          4.05231769	          0.57561394	          0.00000000	          0.19379243	          0.00000000	          1.79698077	          0.00000000	          0.00000000	          0.00000000	          0.00000000	          0.13958882	          1.01638553	         -0.19342986	          0.00000000	          0.00000000	          0.00000000	          0.00000000	          0.00000000	          0.00000000	          0.65513156	          1.04987650	         -0.19217385	          0.00000000	          0.00000000	          0.00000000	
7.392	         31.60092440	        392.43962020	          2.76745103	          0.21999838	          0.00000000	          0.19882484	          0.00000000	         -1.99730822	          0.00000000	        -38.96067373	        455.31886836	          4.22184650	          0.57563300	          0.00000000	          0.19387385	          0.00000000	          1.81085523	          0.00000000	          0.00000000	          0.00000000	          0.00000000	          0.13957122	          1.01649540	         -0.19250543	          0.00000000	          0.00000000	          0.00000000	          0.00000000	          0.00000000	          0.00000000	          0.65513545	          1.05004490	         -0.19130418	          0.00000000	          0.00000000	          0.00000000	
7.393	         31.65487812	        392.33767222	          2.85753359	          0.21998877	          0.00000000	          0.19899282	          0.00000000	         -2.00572624	          0.00000000	        -38.97603287	        455.27219635	          4.39280087	          0.57565097	          0.00000000	          0.19395490	          0.00000000	          1.82516625	          0.00000000	          0.00000000	          0.00000000	          0.00000000	          0.13955418	          1.01660349	         -0.19158125	          0.00000000	          0.00000000	          0.00000000	          0.00000000	          0.00000000	          0.00000000	          0.65513981	          1.05021108	         -0.19043563	          0.00000000	          0.00000000	          0.00000000	
7.394	         31.71287082	        392.25285195	          2.95321036	          0.21997952	          0.00000000	          0.19916105	          0.00000000	         -2.01381130	          0.00000000	        -38.98742267	        455.22854819	          4.56503258	          0.57566787	          0.00000000	          0.19403547	          0.00000000	          1.83988790	          0.00000000	          0.00000000	          0.00000000	          0.00000000	          0.13953770	          1.01670978	         -0.19065732	          0.00000000	          0.00000000	          0.00000000	          0.00000000	          0.00000000	          0.00000000	          0.65514463	          1.05037499	         -0.18956820	          0.00000000	          0.00000000	          0.00000000	
7.395	         31.77484816	        392.18554100	          3.05468072	          0.21997062	          0.00000000	          0.19932939	          0.00000000	         -2.02158118	          0.00000000	        -38.99493326	        455.18725317	          4.73839113	          0.57568374	          0.00000000	          0.19411548	          0.00000000	          1.85499281	          0.00000000	          0.00000000	          0.00000000	          0.00000000	          0.13952180	          1.01681419	         -0.18973360	          0.00000000	          0.00000000	          0.00000000	          0.00000000	          0.00000000	          0.00000000	          0.65514992	          1.05053659	         -0.18870190	          0.00000000	          0.00000000	          0.00000000	
7.396	         31.84074119	        392.13606728	          3.16212502	          0.21996206	          0.00000000	          0.19949771	          0.00000000	         -2.02905487	          0.00000000	        -38.99866579	        455.14763235	          4.91272411	          0.57569861	          0.00000000	          0.19419482	          0.00000000	          1.87045231	          0.00000000	          0.00000000	          0.00000000	          0.00000000	          0.13950649	          1.01691670	         -0.18881010	          0.00000000	          0.00000000	          0.00000000	          0.00000000	          0.00000000	          0.00000000	          0.65515565	          1.05069585	         -0.18783672	          0.00000000	          0.00000000	          0.00000000	
7.397	         31.91046656	        392.10470305	          3.27570383	          0.21995384	          0.00000000	          0.19966585	          0.00000000	         -2.03625243	          0.00000000	        -38.99873193	        455.10900041	          5.08787775	          0.57571251	          0.00000000	          0.19427341	          0.00000000	          1.88623648	          0.00000000	          0.00000000	          0.00000000	          0.00000000	          0.13949179	          1.01701725	         -0.18788680	          0.00000000	          0.00000000	          0.00000000	          0.00000000	          0.00000000	          0.00000000	          0.65516181	          1.05085272	         -0.18697266	          0.00000000	          0.00000000	          0.00000000	
7.398	         31.98392686	        392.09166333	          3.39555723	          0.21994593	          0.00000000	          0.19983370	          0.00000000	         -2.04319497	          0.00000000	        -38.99525340	        455.07066758	          5.26369737	          0.57572549	          0.00000000	          0.19435114	          0.00000000	          1.90231429	          0.00000000	          0.00000000	          0.00000000	          0.00000000	          0.13947770	          1.01711581	         -0.18696368	          0.00000000	          0.00000000	          0.00000000	          0.00000000	          0.00000000	          0.00000000	          0.65516841	          1.05100717	         -0.18610973	          0.00000000	          0.00000000	          0.00000000	
7.399	         32.06101092	        392.09710452	          3.52180420	          0.21993833	          0.00000000	          0.20000111	          0.00000000	         -2.04990448	          0.00000000	        -38.98836136	        455.03194148	          5.44002786	          0.57573758	          0.00000000	          0.19442793	          0.00000000	          1.91865372	          0.00000000	          0.00000000	          0.00000000	          0.00000000	          0.13946423	          1.01721233	         -0.18604074	          0.00000000	          0.00000000	          0.00000000	          0.00000000	          0.00000000	          0.00000000	          0.65517542	          1.05115916	         -0.18524792	          0.00000000	          0.00000000	          0.00000000	
